<?xml version="1.0" standalone="no"?>
<!DOCTYPE svg PUBLIC "-//W3C//DTD SVG 20010904//EN"
 "http://www.w3.org/TR/2001/REC-SVG-20010904/DTD/svg10.dtd">
<svg version="1.0" xmlns="http://www.w3.org/2000/svg"
 width="512.000000pt" height="512.000000pt" viewBox="0 0 512.000000 512.000000"
 preserveAspectRatio="xMidYMid meet">
<metadata>
Created by potrace 1.14, written by Peter Selinger 2001-2017
</metadata>
<g transform="translate(0.000000,512.000000) scale(0.100000,-0.100000)"
fill="#000000" stroke="none">
<path d="M1710 4194 c0 -8 5 -12 10 -9 6 3 10 10 10 16 0 5 -4 9 -10 9 -5 0
-10 -7 -10 -16z"/>
<path d="M1731 4189 c-12 -20 -13 -20 -34 -2 -14 12 -17 12 -10 2 11 -13 9
-15 -10 -13 -33 4 -33 4 -20 12 7 4 -17 8 -52 7 -42 0 -66 -4 -70 -12 -2 -7
-10 -13 -17 -13 -9 0 -9 3 2 10 10 7 0 8 -35 4 -71 -8 -100 -12 -100 -14 0 -1
-20 -3 -45 -4 -25 -1 -50 -4 -55 -8 -6 -3 -24 -4 -42 -3 -24 1 -35 -4 -44 -21
-7 -13 -16 -21 -20 -18 -4 2 -10 0 -14 -5 -3 -6 -13 -7 -22 -4 -12 5 -14 3 -8
-7 6 -10 4 -12 -9 -7 -9 4 -15 3 -11 -2 3 -5 2 -11 -2 -14 -5 -2 -2 -2 5 0 8
1 12 -3 9 -9 -2 -7 -10 -12 -16 -10 -6 1 -11 -2 -11 -8 0 -5 -7 -7 -15 -4 -9
4 -15 0 -15 -10 0 -9 -7 -17 -15 -17 -8 -1 -24 -3 -35 -4 -11 -1 -24 -3 -30
-4 -16 -2 -11 -21 6 -21 8 0 12 4 9 10 -3 6 1 7 10 4 14 -6 14 -7 -1 -18 -14
-11 -14 -13 0 -25 8 -7 21 -9 27 -5 8 5 9 3 5 -5 -6 -9 3 -11 35 -6 24 4 47 9
51 11 3 2 9 0 12 -5 4 -5 18 -6 34 -2 15 5 36 7 47 5 46 -7 173 -6 185 1 8 5
11 4 7 -2 -5 -7 28 -11 94 -11 56 -1 104 -4 107 -6 2 -3 12 -1 22 4 10 5 20 7
23 3 11 -10 121 -10 135 0 7 6 12 6 12 0 0 -5 17 -9 38 -8 20 0 49 -2 64 -6
32 -9 212 -24 280 -24 25 0 44 -3 42 -6 -2 -3 11 -6 29 -7 18 0 46 -3 62 -6
57 -10 130 -19 177 -20 27 0 48 -4 48 -8 0 -5 17 -8 38 -8 80 -1 82 -2 63 -26
-9 -12 -19 -20 -23 -18 -10 6 -138 -95 -138 -109 0 -5 -3 -8 -6 -4 -3 3 -36
-15 -72 -40 -67 -47 -172 -108 -247 -146 -22 -11 -42 -23 -45 -26 -7 -10 -78
-52 -130 -78 -25 -13 -52 -27 -60 -32 -33 -22 -228 -111 -241 -111 -8 0 -20
-5 -27 -12 -9 -9 -12 -9 -12 0 0 7 -7 12 -16 12 -8 0 -13 -4 -9 -9 3 -5 0 -13
-6 -17 -8 -5 -9 -3 -4 6 6 10 4 12 -8 7 -9 -3 -18 0 -21 9 -5 12 -10 13 -27 4
-11 -7 -38 -10 -60 -7 -21 2 -39 2 -39 -2 0 -3 -32 -6 -71 -6 -39 0 -73 -4
-76 -8 -3 -4 -10 -3 -17 2 -9 8 -18 6 -32 -5 -17 -14 -17 -15 -1 -10 11 4 16
2 12 -5 -4 -5 -14 -9 -23 -8 -34 3 -53 -1 -47 -11 3 -5 1 -10 -5 -10 -6 0 -8
-5 -4 -11 4 -7 -2 -6 -17 2 -21 11 -22 10 -12 -2 10 -13 8 -15 -17 -13 -17 1
-30 -3 -30 -8 0 -6 -9 -8 -20 -5 -11 3 -20 1 -20 -4 0 -6 -9 -5 -21 1 -26 15
-36 6 -16 -14 8 -8 18 -12 22 -8 4 4 6 0 5 -8 -1 -8 -2 -24 -1 -35 1 -15 3
-17 10 -6 6 9 10 9 12 2 2 -6 23 -12 46 -14 24 -1 43 -6 43 -10 0 -4 9 -3 20
3 16 8 20 8 18 -2 -2 -8 4 -12 15 -10 9 2 17 -2 17 -8 0 -5 -5 -10 -11 -10
-19 0 -117 -51 -206 -107 -28 -18 -55 -33 -60 -33 -5 0 -33 -16 -63 -36 -30
-19 -66 -40 -79 -45 -33 -13 -236 -159 -287 -206 -66 -61 -101 -123 -108 -196
-2 -15 -6 -30 -10 -34 -11 -12 -6 -33 26 -109 29 -70 61 -108 99 -116 8 -2 16
-5 19 -8 38 -42 210 -84 385 -95 55 -3 114 -8 130 -10 69 -9 208 -18 328 -21
70 -2 131 -5 135 -8 4 -2 52 -5 107 -6 55 -1 151 -4 213 -7 85 -3 117 -1 129
9 11 8 14 9 10 1 -5 -9 7 -12 43 -11 28 0 53 -2 55 -4 1 -1 -12 -34 -30 -73
-34 -74 -59 -160 -50 -175 3 -4 -1 -10 -7 -12 -23 -8 -18 -196 6 -288 3 -8 5
-19 5 -23 1 -5 5 -6 9 -3 4 3 7 -8 6 -25 -5 -76 146 -306 245 -371 108 -71
250 -129 401 -163 3 -1 25 -5 50 -9 25 -4 52 -9 60 -10 8 -2 38 -6 65 -10 28
-4 75 -11 105 -16 92 -17 110 -19 235 -31 118 -11 417 -8 485 5 147 28 200 43
424 126 39 14 61 18 66 11 3 -6 2 -41 -3 -78 -5 -38 -10 -91 -12 -119 -3 -28
-5 -55 -6 -60 -4 -24 2 -45 12 -38 8 4 8 1 2 -12 -5 -11 -8 -25 -7 -31 1 -7 2
-17 3 -21 0 -5 13 -14 28 -21 l28 -13 -25 -14 c-14 -7 -20 -13 -14 -14 5 0 19
7 30 15 26 20 40 19 23 -2 -12 -15 -12 -16 1 -8 8 5 24 9 35 7 18 -2 18 -1 -1
7 -28 12 -42 33 -17 25 16 -5 16 -4 -1 10 -11 9 -15 16 -9 16 7 0 15 -5 18
-10 3 -6 11 -10 17 -10 6 0 5 7 -3 18 -13 16 -12 16 4 3 18 -14 18 -16 1 -28
-16 -12 -16 -13 -1 -13 9 0 20 -1 24 -2 5 -2 8 6 8 16 0 11 6 20 13 22 7 1 8
0 2 -3 -5 -2 -10 -9 -10 -14 0 -6 5 -7 12 -3 8 5 9 2 5 -10 -4 -10 -7 -20 -7
-22 0 -2 -6 -4 -14 -4 -8 0 -17 -4 -20 -9 -4 -5 3 -7 15 -4 11 3 23 12 26 19
3 8 9 14 15 14 5 0 6 -5 3 -10 -4 -6 -1 -9 7 -8 7 2 12 -3 10 -10 -1 -8 2 -11
8 -7 8 5 8 11 0 20 -17 21 13 39 42 24 23 -12 23 -12 3 8 -21 21 -48 27 -38 9
3 -6 0 -5 -8 1 -10 10 -10 16 -1 25 9 9 12 9 12 -1 0 -7 5 -9 10 -6 8 5 7 12
-2 23 -12 15 -11 16 5 3 20 -15 23 -2 5 18 -9 10 -9 12 -1 7 6 -3 14 -2 18 4
3 5 0 10 -7 10 -10 0 -10 2 1 9 9 6 10 10 2 16 -9 5 -9 10 -1 20 6 7 7 20 4
30 -5 13 -3 16 7 13 8 -3 13 -11 12 -17 -2 -6 2 -11 7 -11 10 0 13 15 13 62
-1 16 3 26 8 23 4 -3 6 5 3 17 -7 30 -7 36 1 78 3 19 6 47 7 63 1 15 5 27 10
27 4 0 8 4 8 9 0 5 -10 7 -22 5 -13 -2 -17 -2 -10 2 6 3 10 10 7 15 -4 5 1 6
11 2 14 -5 15 -3 5 15 -7 12 -16 22 -22 22 -6 0 -7 -5 -3 -12 5 -7 3 -8 -5 -3
-9 5 -10 10 -2 18 7 7 16 6 29 -6 15 -14 19 -14 19 -3 0 8 -11 19 -24 25 -12
6 -23 16 -23 23 0 9 3 10 8 2 4 -6 18 -15 32 -19 24 -7 24 -7 -5 20 -24 22
-26 25 -7 15 13 -6 26 -9 29 -6 3 3 -2 8 -11 12 -9 3 -13 10 -10 15 3 5 10 7
15 3 5 -3 9 -2 8 3 -1 4 4 22 11 38 7 17 13 33 12 38 -1 4 3 7 9 7 5 0 7 5 3
11 -4 8 -9 7 -15 -2 -4 -7 -5 -17 -2 -23 3 -5 1 -6 -5 -2 -14 9 1 52 17 48 9
-2 9 3 1 18 -6 11 -7 20 -3 20 4 0 2 4 -5 9 -11 7 -11 9 1 14 11 4 15 0 12
-13 -2 -11 -1 -22 3 -24 4 -2 8 9 8 25 1 16 -2 29 -7 29 -5 0 -9 5 -9 11 0 5
5 7 10 4 6 -3 10 5 10 19 0 13 -6 27 -12 29 -10 4 -9 6 1 6 11 1 11 4 0 18
-12 14 -12 16 0 8 10 -6 12 -4 6 5 -4 7 -9 23 -11 34 -2 12 -5 30 -8 41 -2 11
-5 26 -5 33 -1 7 -4 11 -9 8 -4 -2 -16 2 -27 10 -15 11 -16 17 -7 26 9 9 12 8
12 -5 0 -19 15 -23 26 -5 4 6 3 8 -3 5 -6 -4 -14 1 -17 10 -5 12 -9 14 -18 5
-15 -15 -42 -16 -33 -2 9 14 -8 12 -24 -3 -11 -10 -12 -8 -6 12 4 13 3 21 -1
19 -5 -3 -18 -2 -29 2 -13 5 -27 2 -40 -8 -12 -10 -15 -11 -7 -2 18 20 15 29
-8 25 -11 -2 -22 0 -25 4 -7 12 -57 4 -66 -11 -7 -10 -9 -10 -9 0 0 6 -5 12
-11 12 -5 0 -7 -5 -3 -12 5 -7 3 -8 -6 -3 -10 6 -12 3 -7 -11 5 -12 0 -10 -13
8 -16 20 -27 25 -46 22 -15 -3 -23 -1 -20 5 3 5 -2 8 -11 7 -10 -2 -18 -9 -18
-17 0 -8 5 -13 11 -12 6 1 11 -5 11 -13 0 -12 -3 -12 -17 1 -9 8 -20 12 -25 8
-4 -5 -5 1 -1 13 4 15 2 21 -9 21 -9 0 -14 -5 -12 -11 3 -6 -6 -11 -19 -11
-13 0 -24 2 -24 5 0 9 -125 5 -139 -4 -8 -5 -12 -5 -9 0 4 5 -20 9 -53 9 -32
-1 -59 4 -59 9 0 5 -6 1 -14 -10 -9 -11 -11 -23 -5 -30 5 -7 4 -11 -5 -11 -14
0 -16 21 -3 33 4 4 7 11 7 16 0 4 -9 -1 -21 -13 -11 -11 -27 -18 -34 -15 -7 2
-16 -2 -19 -10 -3 -9 -10 -13 -15 -9 -5 3 -12 1 -15 -4 -7 -10 13 -9 31 2 6 4
15 2 19 -4 4 -7 3 -9 -4 -5 -6 3 -13 2 -17 -4 -9 -14 -45 -12 -45 3 0 8 -4 7
-10 -3 -6 -10 -10 -11 -10 -2 0 6 -5 12 -11 12 -5 0 -7 -4 -4 -10 3 -5 -1 -10
-9 -10 -8 0 -17 4 -21 9 -6 11 -45 10 -45 -1 0 -4 4 -8 9 -8 5 0 8 -8 7 -17
-3 -21 24 -54 37 -46 6 3 7 1 3 -5 -8 -13 30 -36 44 -27 6 3 10 1 10 -4 0 -6
5 -11 11 -11 5 0 7 6 3 13 -4 6 1 4 12 -5 10 -9 37 -19 59 -22 22 -3 59 -10
82 -15 23 -4 58 -8 77 -7 20 1 36 -3 36 -8 0 -5 3 -6 7 -3 3 4 12 2 20 -4 10
-9 13 -8 13 2 0 12 2 12 9 0 6 -9 35 -15 87 -17 109 -6 144 -12 144 -29 0 -8
-4 -16 -10 -20 -15 -9 0 -34 18 -28 11 3 13 2 6 -4 -6 -4 -16 -18 -22 -30 -13
-23 -38 -25 -53 -2 -6 9 -9 10 -9 2 0 -7 -7 -10 -15 -7 -18 7 -20 -11 -3 -22
6 -4 8 -3 5 3 -3 5 0 10 8 10 19 0 19 -5 0 -23 -8 -9 -15 -11 -15 -6 0 5 -9
12 -20 15 -22 6 -43 -20 -37 -45 2 -7 2 -10 0 -5 -3 4 -9 7 -14 7 -6 0 -7 -6
-3 -12 5 -9 2 -9 -9 1 -9 7 -17 10 -17 6 0 -4 -7 -2 -15 5 -12 10 -20 9 -40
-4 -14 -9 -25 -13 -25 -10 0 4 -8 0 -19 -10 -10 -9 -28 -19 -41 -21 -12 -2
-28 -9 -34 -15 -7 -5 -16 -7 -20 -3 -4 4 -4 -1 0 -12 6 -16 5 -18 -7 -7 -16
15 -29 16 -29 1 0 -5 5 -7 12 -3 7 4 8 3 4 -5 -6 -9 -11 -9 -22 0 -12 10 -13
9 -8 -6 6 -15 4 -16 -14 -6 -15 8 -22 8 -25 -2 -4 -8 -6 -8 -6 2 -1 11 -5 10
-17 -5 -8 -10 -13 -14 -10 -7 4 7 -1 11 -14 10 -13 -1 -19 -6 -15 -15 3 -9 0
-10 -12 -4 -19 11 -53 4 -53 -10 0 -6 -7 -5 -15 2 -12 10 -15 10 -15 -1 0 -9
-3 -10 -8 -4 -9 13 -46 19 -38 6 4 -6 -2 -8 -16 -5 -30 7 -108 8 -115 1 -3 -3
-16 -2 -29 3 -15 6 -26 6 -30 -1 -4 -7 -10 -7 -18 0 -7 6 -18 6 -25 1 -9 -5
-22 -3 -33 3 -15 10 -21 9 -28 -3 -8 -12 -10 -12 -10 5 0 15 -2 17 -9 6 -6 -9
-11 -10 -15 -3 -4 6 -13 9 -21 5 -8 -3 -15 -1 -15 3 0 5 -24 10 -53 12 -47 2
-92 8 -92 12 0 9 -119 15 -133 6 -8 -5 -10 -2 -5 10 5 14 3 15 -15 5 -15 -8
-22 -8 -22 -1 0 5 -5 10 -11 10 -5 0 -7 -6 -3 -12 6 -11 4 -11 -7 0 -7 6 -22
12 -34 12 -12 0 -27 6 -34 13 -10 8 -12 8 -7 0 4 -7 -4 -6 -23 3 -23 11 -35
12 -50 4 -17 -9 -20 -8 -14 6 4 12 3 15 -5 10 -7 -4 -12 -1 -13 6 0 7 -4 4 -9
-7 -7 -16 -9 -17 -9 -3 -1 18 -86 62 -102 52 -5 -3 -8 0 -7 8 2 7 -3 12 -10
10 -6 -1 -12 2 -12 8 0 5 -6 7 -13 5 -6 -3 -17 5 -22 17 -6 13 -16 22 -23 20
-7 -1 -12 4 -12 11 0 8 -11 20 -24 27 -14 7 -28 20 -31 29 -4 9 4 6 21 -9 15
-14 23 -18 19 -10 -19 31 -39 48 -51 43 -8 -3 -14 0 -14 6 0 6 5 11 10 11 6 0
10 9 10 21 0 11 -5 17 -10 14 -6 -4 -8 -11 -5 -16 10 -15 -2 -10 -16 8 -8 9
-9 14 -2 10 16 -10 22 14 10 40 -6 13 -16 20 -26 16 -14 -4 -13 -3 1 7 19 12
13 44 -6 33 -6 -4 -6 0 2 9 10 13 10 17 0 21 -11 4 -11 6 0 6 10 1 10 4 0 15
-7 8 -17 11 -23 8 -5 -3 -4 1 2 10 7 8 9 19 5 23 -4 5 -1 5 6 1 7 -4 9 -12 6
-18 -4 -6 -2 -8 4 -4 6 3 10 15 9 26 -1 15 -6 18 -21 14 -19 -6 -19 -6 -3 10
9 9 14 23 11 30 -3 8 0 17 5 21 6 3 9 10 7 14 -3 4 1 8 9 8 11 0 12 -4 4 -14
-7 -8 -8 -13 -1 -13 17 0 23 30 7 36 -11 5 -12 9 -2 19 7 7 17 10 22 7 6 -2 4
1 -2 9 -19 19 -16 29 10 30 12 0 16 3 10 6 -7 2 -13 12 -13 21 0 15 2 15 10 2
9 -13 11 -13 19 -1 5 8 7 21 3 29 -4 11 -1 13 8 7 8 -5 11 -4 6 3 -3 5 0 13 6
16 7 3 3 3 -9 1 -12 -3 -24 -1 -28 4 -4 7 1 8 12 4 16 -6 17 -5 3 13 -14 17
-14 18 2 6 18 -14 33 -5 83 46 22 24 36 25 267 33 25 1 35 5 31 13 -4 6 1 5
10 -3 9 -7 17 -9 17 -4 0 5 16 9 35 8 20 -1 38 2 42 8 3 6 1 7 -5 3 -8 -5 -12
1 -12 15 0 21 1 21 18 6 15 -14 19 -15 19 -2 0 8 -5 11 -10 8 -6 -4 -8 0 -4
10 3 9 1 19 -5 23 -6 4 -8 3 -5 -3 4 -6 0 -13 -8 -17 -8 -3 -17 -1 -20 4 -3 5
-13 7 -23 4 -15 -5 -15 -4 1 6 12 7 16 18 12 31 -5 13 -2 19 10 19 9 0 13 5
10 10 -4 6 -12 7 -18 3 -8 -4 -7 -1 1 9 11 14 10 18 -4 26 -11 6 -13 11 -5 16
6 4 11 2 11 -3 0 -6 6 -10 13 -9 6 2 11 -2 10 -7 -1 -6 7 -12 18 -12 10 -1 19
3 19 8 0 6 -5 7 -12 3 -7 -5 -9 -2 -5 9 4 12 2 14 -10 10 -11 -4 -14 -2 -9 5
5 8 2 10 -8 6 -11 -4 -16 0 -16 10 0 9 3 15 8 15 4 -1 14 -1 22 0 11 1 10 4
-4 13 -15 8 -21 8 -24 0 -2 -7 -8 -9 -13 -6 -6 3 -5 12 3 22 10 12 10 14 1 8
-8 -4 -13 -2 -13 5 0 7 -7 4 -15 -7 -8 -10 -14 -14 -13 -9 1 6 -2 20 -6 33 -5
16 -11 20 -20 13 -8 -7 -12 -5 -12 8 0 16 4 17 24 10 29 -11 41 -11 23 0 -8 5
-11 16 -6 30 3 12 11 18 17 15 7 -4 8 -2 4 4 -4 7 -2 12 3 12 6 0 11 9 11 21
0 13 -4 18 -12 13 -6 -4 -8 -3 -5 3 4 6 18 8 32 5 14 -2 25 0 25 7 0 5 -8 8
-17 5 -14 -5 -15 -4 -4 4 11 8 11 10 0 14 -9 3 -8 6 5 11 9 4 15 3 13 -1 -3
-4 2 -14 11 -22 14 -13 15 -12 9 4 -5 13 -3 17 6 13 18 -7 63 28 48 37 -13 8
-34 -2 -27 -13 3 -4 -4 -7 -14 -8 -11 -1 -22 2 -25 8 -4 5 2 6 11 2 13 -5 15
-3 9 7 -5 9 -4 11 3 6 7 -4 12 -2 12 3 0 6 7 11 16 11 14 0 15 2 3 18 -13 15
-12 16 3 3 15 -11 19 -11 24 3 3 9 10 13 15 10 5 -3 9 0 9 5 0 6 -5 11 -12 11
-6 0 -8 3 -5 6 4 4 13 2 20 -4 8 -7 16 -11 18 -9 2 1 -2 -2 -10 -8 -39 -29
-55 -44 -44 -45 20 0 74 53 75 75 1 14 10 20 27 22 14 0 27 6 29 12 2 6 10 11
18 11 8 0 14 9 14 20 0 11 5 20 11 20 5 0 7 -5 3 -12 -4 -7 -3 -8 5 -4 6 4 8
12 5 18 -5 7 -1 9 9 5 18 -7 33 8 17 18 -5 3 -10 11 -10 16 0 6 7 3 16 -5 19
-20 31 -21 15 -2 -9 11 -9 16 0 22 8 4 9 3 5 -4 -12 -20 19 -13 37 8 14 17 15
25 6 43 -10 19 -10 20 2 11 16 -14 43 -5 79 26 14 12 20 19 15 17 -6 -3 -11 6
-12 21 0 15 1 20 4 10 7 -28 31 -28 54 0 11 15 24 26 27 24 4 -1 15 5 25 13 9
8 20 15 23 15 3 0 26 13 50 30 25 16 56 33 69 36 14 3 23 9 20 13 -2 4 6 7 18
7 15 -1 22 4 21 17 -2 15 1 16 14 5 13 -10 13 -7 -2 17 l-19 30 23 -20 c13
-11 20 -14 16 -7 -4 7 -1 12 8 12 9 0 16 7 16 16 0 8 -4 12 -10 9 -6 -4 -7 1
-3 11 5 14 8 13 20 -7 12 -21 13 -21 8 -3 -6 24 8 39 47 49 16 4 25 11 22 16
-3 6 6 8 20 5 14 -3 28 0 31 5 4 5 11 9 16 9 6 0 7 -4 4 -10 -3 -5 -2 -10 4
-10 5 0 9 9 8 20 -1 22 -17 26 -33 10 -7 -7 -11 -6 -11 4 0 8 4 13 8 10 4 -2
11 1 15 7 11 18 -22 37 -59 33 -17 -1 -47 -4 -64 -5 -18 -2 -33 -6 -33 -9 0
-3 -19 -6 -42 -6 -23 -1 -44 -7 -46 -12 -2 -6 -10 -8 -19 -5 -9 4 -14 2 -11
-3 3 -5 -10 -10 -29 -11 -20 -1 -41 -7 -46 -12 -6 -6 -17 -11 -23 -11 -7 0
-25 -5 -41 -12 -15 -6 -32 -10 -38 -9 -5 1 -15 -6 -22 -15 -7 -10 -13 -12 -13
-6 0 8 -15 3 -37 -11 -21 -13 -48 -27 -60 -31 -13 -4 -45 -25 -73 -47 -27 -21
-53 -39 -57 -39 -4 0 -26 -16 -47 -35 -22 -19 -44 -35 -48 -35 -5 0 -6 -4 -3
-10 5 -9 -1 -12 -21 -9 -3 0 -12 -8 -20 -18 -7 -10 -14 -15 -14 -11 0 7 -13
-2 -63 -46 -12 -10 -56 -44 -97 -74 -41 -31 -87 -68 -103 -84 -15 -15 -31 -28
-35 -28 -4 0 -24 -18 -44 -40 -21 -22 -38 -37 -38 -33 0 4 -27 -21 -60 -56
-33 -34 -57 -67 -54 -73 4 -7 2 -8 -4 -4 -7 4 -12 1 -12 -9 0 -9 -4 -14 -9
-11 -11 7 -53 -38 -44 -47 3 -4 2 -7 -4 -7 -14 0 -58 -40 -58 -53 0 -5 -6 -12
-13 -14 -6 -3 -12 0 -12 7 0 6 5 8 12 4 7 -5 8 -3 4 5 -5 7 -1 20 8 29 14 16
14 18 -4 18 -10 0 -16 -4 -13 -9 2 -4 -2 -18 -10 -31 -12 -18 -13 -26 -4 -37
10 -11 9 -11 -4 -1 -12 9 -18 9 -27 0 -9 -9 -12 -9 -12 1 0 7 -5 9 -10 6 -6
-4 -9 -1 -8 6 2 6 -2 13 -9 16 -16 6 -10 -27 8 -38 8 -5 9 -9 3 -9 -13 0 -31
19 -34 35 -3 17 -10 19 -10 3 0 -9 -7 -19 -16 -22 -14 -5 -15 -4 -4 9 11 13
11 18 0 28 -9 9 -11 9 -6 0 8 -15 -10 -27 -19 -13 -5 8 -12 7 -23 -2 -12 -10
-16 -10 -19 0 -3 6 -9 10 -13 7 -5 -3 -7 7 -4 22 3 21 2 24 -6 13 -6 -10 -10
-11 -10 -2 0 14 -21 12 -32 -3 -5 -6 -8 -6 -8 1 0 7 -11 11 -24 10 -16 -1 -21
-5 -15 -12 5 -6 8 -13 6 -15 -1 -2 4 2 11 10 11 14 17 8 12 -14 -1 -5 4 -4 11
3 7 6 19 12 26 12 15 0 18 -36 3 -45 -6 -3 -7 1 -4 9 4 10 1 16 -9 16 -8 0
-18 -6 -20 -12 -4 -10 -6 -10 -6 0 -1 6 -6 12 -12 12 -5 0 -7 -5 -3 -12 4 -6
-3 -4 -17 5 -26 19 -43 22 -34 7 3 -6 -1 -7 -10 -4 -8 4 -23 0 -32 -7 -10 -8
-14 -9 -10 -2 4 6 3 14 -2 17 -5 3 -12 -1 -15 -10 -4 -9 -11 -12 -18 -7 -18
11 -41 10 -51 -2 -5 -6 -7 -3 -3 8 3 11 0 17 -10 17 -9 0 -12 -5 -8 -12 6 -10
5 -10 -8 -1 -8 7 -18 10 -21 7 -3 -3 -12 -2 -19 2 -7 5 -27 9 -45 10 -25 1
-30 -2 -26 -15 4 -12 3 -13 -5 -3 -10 15 -21 15 -40 0 -7 -6 -15 -8 -19 -4 -3
3 -1 6 6 6 7 0 11 7 8 14 -4 10 -1 13 9 9 8 -3 14 1 14 8 0 11 3 11 10 -1 8
-12 10 -12 10 -1 0 10 4 11 13 3 15 -13 29 -13 44 0 9 7 15 6 19 -6 3 -9 10
-16 16 -16 5 0 7 4 3 9 -3 5 0 13 6 17 8 5 9 3 4 -6 -6 -9 -4 -11 5 -5 9 6 11
4 5 -6 -6 -11 -5 -12 5 -2 23 21 3 27 -100 28 -86 2 -100 0 -99 -14 0 -10 2
-12 6 -3 6 16 20 15 20 -2 0 -20 -34 -27 -41 -9 -4 8 -3 20 1 25 4 7 -2 9 -15
6 -12 -4 -24 -3 -27 2 -2 4 -16 8 -31 8 -15 0 -21 -4 -14 -8 6 -4 10 -11 8
-15 -1 -5 7 -9 19 -10 12 -1 20 1 18 5 -2 4 2 7 10 7 8 0 12 -4 9 -9 -3 -4 1
-8 8 -8 10 0 9 -3 -2 -10 -8 -5 -19 -5 -25 -1 -5 4 -36 7 -68 6 -42 -2 -60 2
-64 11 -3 8 -10 11 -16 7 -6 -3 -7 -1 -3 6 4 6 12 9 17 6 5 -4 9 -2 9 3 0 5
-20 9 -45 9 -24 0 -42 -3 -39 -8 2 -4 13 -6 24 -4 21 4 27 -9 10 -20 -5 -3
-10 -2 -10 2 0 5 -11 10 -26 11 -14 1 -23 -2 -19 -7 6 -11 -36 -8 -54 3 -6 4
-19 2 -28 -6 -12 -9 -15 -9 -9 0 5 8 -1 12 -18 13 -57 3 -65 4 -73 12 -4 5 -8
14 -8 19 0 6 -12 12 -26 12 -18 1 -25 -3 -22 -11 6 -16 15 -16 32 0 11 10 11
8 0 -10 -9 -15 -17 -19 -25 -12 -8 7 -13 6 -16 -3 -3 -8 -7 -6 -11 6 -5 12 -3
15 6 10 9 -6 9 -5 0 8 -7 8 -9 19 -5 23 4 5 2 5 -5 1 -6 -3 -10 -15 -8 -26 2
-11 -1 -23 -7 -26 -7 -4 -8 -2 -4 4 4 7 2 12 -4 12 -6 0 -9 4 -6 8 2 4 1 14
-3 20 -6 10 -14 10 -35 -2 -15 -7 -27 -16 -27 -20 1 -6 -1 -6 -16 -6 -5 1 3
10 16 20 13 11 19 20 15 20 -14 0 -30 -13 -43 -35 -11 -18 -12 -18 -8 8 2 15
2 25 -1 22 -3 -2 -12 1 -20 8 -13 9 -14 9 -8 0 4 -7 2 -21 -4 -30 -11 -16 -11
-16 -6 -1 3 10 0 20 -6 24 -7 4 -8 3 -4 -4 5 -8 -3 -12 -25 -12 -25 0 -29 3
-20 14 8 10 8 16 -2 25 -8 6 -18 7 -23 3 -5 -4 -5 -3 -1 3 5 6 14 10 20 10 7
0 12 7 12 15 0 9 8 14 19 12 10 -2 15 1 12 6 -7 12 20 10 31 -3 4 -4 2 -5 -5
-1 -7 4 -15 1 -18 -8 -3 -9 -10 -14 -14 -11 -5 3 -12 0 -16 -6 -4 -8 -3 -9 4
-5 7 4 12 2 12 -3 0 -6 -4 -11 -8 -11 -5 0 -9 -7 -9 -15 0 -26 13 -17 27 19 7
19 16 35 19 34 27 -3 40 5 38 21 0 11 -5 17 -9 15 -5 -3 -6 -10 -3 -15 4 -5 2
-9 -3 -9 -6 0 -13 7 -16 16 -3 8 -2 12 3 9 6 -3 14 3 20 12 6 11 11 13 11 5 0
-7 4 -11 10 -7 5 3 7 12 4 19 -3 8 -1 17 5 21 7 3 8 0 5 -9 -4 -9 -1 -16 6
-16 9 0 7 -8 -6 -22 -17 -21 -16 -21 9 1 29 26 35 36 15 26 -7 -4 -4 1 7 9 11
9 28 23 38 31 18 16 22 9 8 -13 -4 -8 -12 -13 -17 -12 -5 1 -10 -4 -12 -12 -3
-11 -2 -11 6 0 5 8 12 14 15 14 24 0 47 13 47 27 0 14 -2 14 -10 1 -6 -9 -10
-10 -10 -3 0 6 5 15 10 18 6 4 7 11 4 17 -4 7 -2 8 5 4 6 -4 9 -11 6 -16 -3
-5 0 -12 6 -16 8 -4 9 -3 5 4 -4 7 -2 12 5 12 9 0 9 3 0 14 -9 11 -8 15 6 21
10 5 20 9 23 9 3 1 12 5 20 11 13 8 13 7 1 -8 -7 -9 -18 -14 -24 -10 -6 4 -7
1 -2 -7 6 -9 4 -11 -5 -5 -9 5 -11 4 -6 -4 5 -8 16 -5 37 9 16 12 29 18 29 15
0 -4 7 0 15 9 18 18 20 30 3 21 -7 -4 -2 3 10 14 19 16 28 18 43 11 13 -8 19
-7 19 0 0 6 5 8 12 4 7 -4 8 -3 4 4 -4 7 3 14 19 18 14 3 25 10 25 15 0 5 6 9
14 9 22 0 66 26 58 35 -4 5 -2 5 5 1 7 -4 27 1 45 11 18 9 36 16 41 15 4 -1 7
2 7 7 0 5 25 19 55 31 32 13 52 27 48 33 -3 5 -1 7 5 3 6 -3 17 0 25 8 8 8 17
12 21 9 3 -4 13 2 22 13 8 10 13 13 9 7 -3 -7 -1 -13 4 -13 6 0 11 5 11 10 0
6 7 10 15 10 8 0 24 10 36 23 12 12 19 16 15 10 -5 -9 -2 -11 8 -7 9 3 16 11
16 17 0 6 3 8 6 5 3 -4 21 0 40 8 25 11 56 13 107 9 212 -17 373 -24 394 -17
7 2 10 9 6 16 -5 8 -3 8 8 0 8 -6 23 -8 34 -4 17 6 16 8 -9 14 -16 4 -26 10
-22 13 3 3 1 12 -6 20 -8 11 -7 12 6 7 23 -9 17 18 -8 32 -17 10 -17 12 -2 17
10 4 15 3 11 -3 -6 -9 9 -15 29 -11 5 1 4 -5 -4 -13 -8 -11 -9 -16 -1 -16 6 0
11 4 11 10 0 5 6 7 14 4 8 -3 17 0 22 7 4 8 3 10 -4 5 -14 -9 -52 15 -52 32 0
8 -5 10 -12 6 -9 -5 -9 -3 1 9 12 15 10 18 -10 26 -19 8 -20 10 -6 10 10 1 15
6 12 12 -4 6 -9 8 -12 5 -3 -3 -14 6 -25 19 -11 14 -24 23 -29 20 -15 -10 -10
2 8 16 10 8 14 9 10 2 -4 -6 -3 -14 2 -17 11 -7 24 22 16 35 -4 5 1 6 9 3 17
-7 20 -16 9 -28 -20 -19 -9 -41 19 -37 4 0 5 -8 3 -19 -3 -17 -1 -18 20 -8 15
7 21 16 18 26 -4 10 -2 13 5 8 6 -3 13 -3 16 2 6 11 -45 10 -61 -1 -8 -5 -13
-4 -13 2 0 5 5 13 10 16 7 4 7 12 0 25 -14 26 -13 30 8 30 9 0 23 9 30 21 7
12 16 18 19 15 3 -3 12 2 20 12 8 9 11 10 7 3 -5 -9 5 -6 23 7 17 12 36 22 42
22 7 0 16 10 21 23 5 12 9 16 9 9 1 -7 6 -10 11 -7 6 4 8 11 5 16 -4 5 3 9 15
9 12 0 19 4 15 9 -3 6 -14 8 -25 6 -12 -2 -18 0 -15 5 3 4 17 6 33 4 21 -3 29
1 37 18 7 16 17 22 33 20 12 -2 22 2 22 8 0 6 4 9 9 6 5 -3 12 1 15 9 3 8 11
14 18 13 7 -2 12 3 10 11 -2 9 3 11 15 7 14 -6 16 -5 6 5 -16 16 -17 29 -2 29
5 0 7 -4 4 -10 -3 -5 -1 -10 4 -10 6 0 11 3 11 8 0 4 10 12 23 17 12 6 21 18
20 28 0 10 2 16 5 13 3 -3 12 0 20 7 11 8 14 8 9 0 -8 -12 10 -12 31 1 17 10
-5 39 -22 29 -7 -4 -6 -1 1 9 7 8 11 18 8 21 -3 4 -2 4 3 1 4 -3 7 -11 7 -17
0 -18 38 -15 42 3 4 13 3 13 -7 0 -10 -13 -11 -13 -7 0 2 8 11 15 19 15 20 0
59 35 53 46 -3 4 4 14 15 22 l21 14 -22 6 c-19 5 -20 8 -9 21 7 9 18 16 24 16
6 0 2 -7 -8 -15 -17 -13 -18 -15 -3 -15 22 0 35 49 16 61 -10 6 -8 8 8 7 14
-2 19 -7 16 -18 -2 -8 1 -6 8 5 16 23 18 36 8 50 -9 14 -7 45 2 39 5 -2 6 -11
2 -19 -3 -8 -1 -15 5 -15 6 0 9 8 7 18 -2 9 -4 23 -4 30 -1 7 -5 11 -9 8 -5
-3 -9 1 -9 10 0 10 7 12 21 8 12 -3 16 -2 10 3 -5 4 -10 17 -10 28 1 29 -40
95 -59 95 -27 0 -30 -2 -27 -13 2 -7 0 -9 -4 -5 -4 5 -9 19 -10 33 -2 23 -1
24 13 10 8 -9 18 -13 21 -10 7 7 -29 34 -45 35 -7 0 -10 -9 -8 -21 3 -16 1
-18 -9 -10 -7 6 -17 7 -21 3 -5 -4 -5 -1 -1 6 4 6 2 12 -3 12 -6 0 -11 -4 -11
-8 0 -5 -7 -9 -15 -9 -8 0 -12 4 -9 9 3 4 -2 8 -11 8 -10 0 -13 -5 -9 -12 5
-7 3 -8 -5 -3 -16 9 -4 21 29 30 18 4 21 3 11 -3 -11 -8 -7 -10 12 -9 35 2 34
13 0 22 -55 15 -72 14 -66 -3 4 -10 2 -13 -5 -8 -7 4 -12 2 -12 -6 -1 -7 -7
-2 -15 12 -8 14 -14 21 -15 16 0 -5 -7 -3 -15 4 -10 9 -15 9 -15 1 0 -6 -5
-11 -11 -11 -5 0 -7 5 -4 10 3 6 0 10 -7 11 -7 0 -23 2 -36 3 -13 2 -26 -2
-29 -7 -3 -6 -2 -7 3 -4 5 3 10 -3 10 -14 0 -19 -1 -19 -13 -3 -10 14 -13 14
-13 3 0 -12 -2 -12 -10 1 -8 12 -10 12 -10 -5 -1 -18 -2 -18 -11 -3 -9 16 -63
19 -87 5 -5 -4 -18 1 -28 11 -21 19 -32 21 -53 8 -9 -6 -12 -5 -7 2 3 5 3 12
-1 15 -5 2 -2 2 5 0 7 -1 10 2 7 7 -3 5 -22 8 -41 5 -19 -2 -32 0 -29 5 3 4
-3 7 -12 5 -10 -1 -24 2 -30 8 -7 5 -13 5 -13 0 0 -5 -9 -9 -20 -10 -12 -1
-18 3 -14 9 4 6 -1 6 -14 -1 -14 -7 -23 -8 -27 -1 -3 6 -20 8 -36 5 -18 -3
-28 -2 -25 4 4 5 -9 5 -29 -1 -19 -6 -32 -15 -29 -19 3 -5 -3 -6 -12 -2 -10 4
-15 2 -11 -4 3 -5 0 -10 -8 -10 -8 0 -15 4 -15 8 0 4 -11 6 -25 4 -14 -1 -28
3 -32 9 -3 6 -3 8 2 4 4 -4 14 -3 22 3 8 8 13 8 13 1 0 -12 39 -9 65 5 14 8 4
10 -44 8 -35 -2 -66 -6 -69 -9 -3 -4 -14 2 -25 11 -11 10 -17 13 -14 6 5 -8 0
-11 -13 -10 -11 1 -20 4 -20 7 0 3 -13 6 -30 6 -16 1 -30 -3 -30 -8 0 -5 5 -6
10 -3 6 3 10 2 10 -3 0 -6 -7 -13 -16 -16 -8 -3 -12 -2 -9 4 3 6 1 10 -5 10
-6 0 -8 5 -4 11 5 8 1 8 -14 0 -15 -8 -22 -8 -25 2 -4 7 -6 6 -6 -5 -1 -16
-23 -19 -37 -5 -4 4 -17 -1 -28 -10 -20 -17 -20 -17 -7 0 8 9 12 19 10 22 -3
2 -11 -5 -18 -16z m214 -1 c5 4 5 1 1 -6 -5 -9 -12 -9 -27 -2 -10 6 -19 13
-19 16 0 2 8 0 19 -5 10 -6 22 -7 26 -3z m-304 -15 c13 -15 12 -15 -8 -4 -24
12 -29 21 -14 21 5 0 15 -7 22 -17z m324 -3 c-10 -11 -22 -20 -28 -20 -5 0 1
9 14 20 31 25 37 25 14 0z m-360 0 c3 -5 1 -10 -4 -10 -6 0 -11 5 -11 10 0 6
2 10 4 10 3 0 8 -4 11 -10z m240 1 c3 -5 0 -13 -6 -17 -7 -4 -9 -3 -5 4 3 5 0
13 -6 15 -9 4 -10 6 -1 6 6 1 14 -3 18 -8z m334 -4 c8 -10 7 -14 -4 -14 -8 0
-12 4 -9 9 3 4 0 8 -5 8 -6 0 -11 -5 -11 -11 0 -5 -5 -7 -11 -3 -8 4 -7 9 2
15 19 12 25 11 38 -4z m55 4 c3 -4 0 -13 -6 -21 -8 -12 -9 -12 -4 3 3 9 1 17
-3 17 -5 0 -11 -5 -13 -12 -3 -8 -6 -7 -10 3 -6 15 27 25 36 10z m-674 -5 c0
-3 -4 -8 -10 -11 -5 -3 -10 -1 -10 4 0 6 5 11 10 11 6 0 10 -2 10 -4z m210 0
c0 -2 -7 -7 -16 -10 -8 -3 -12 -2 -9 4 6 10 25 14 25 6z m234 -12 c5 -14 4
-15 -9 -4 -17 14 -19 20 -6 20 5 0 12 -7 15 -16z m253 -6 c-3 -8 -6 -5 -6 6
-1 11 2 17 5 13 3 -3 4 -12 1 -19z m46 9 c3 -7 -3 -13 -14 -14 -15 -1 -16 1
-6 12 15 18 14 18 20 2z m37 -1 c-7 -7 -13 -7 -20 0 -6 6 -3 10 10 10 13 0 16
-4 10 -10z m35 -17 c4 -6 14 -8 24 -4 12 5 13 4 4 -6 -9 -9 -16 -9 -26 -1 -8
7 -17 9 -20 5 -4 -3 -7 -1 -7 5 0 15 17 16 25 1z m-207 -24 c-3 -3 -9 2 -12
12 -6 14 -5 15 5 6 7 -7 10 -15 7 -18z m529 -5 c-1 -17 -3 -18 -15 -6 -8 8
-11 19 -7 25 9 16 24 4 22 -19z m-442 10 c-3 -5 -12 -10 -18 -10 -7 0 -6 4 3
10 19 12 23 12 15 0z m510 -29 c-3 -2 -11 2 -20 9 -11 9 -15 9 -15 1 0 -7 -5
-9 -11 -5 -8 4 -7 9 2 14 12 8 53 -10 44 -19z m-175 9 c0 -5 -2 -10 -4 -10 -3
0 -8 5 -11 10 -3 6 -1 10 4 10 6 0 11 -4 11 -10z m422 -100 c12 -22 14 -31 5
-36 -7 -4 -9 -4 -5 1 4 4 -2 21 -13 36 -11 16 -17 29 -12 29 4 0 16 -13 25
-30z m-122 -280 c0 -5 -4 -10 -10 -10 -5 0 -10 5 -10 10 0 6 5 10 10 10 6 0
10 -4 10 -10z m48 -6 c-1 -5 -9 -9 -16 -10 -10 -2 -11 1 -1 12 12 14 24 13 17
-2z m-70 -39 c-3 -3 -9 2 -12 12 -6 14 -5 15 5 6 7 -7 10 -15 7 -18z m42 3 c0
-9 3 -8 10 2 5 8 11 12 15 9 3 -3 -5 -14 -17 -25 -13 -10 -20 -15 -16 -10 4 5
3 15 -3 23 -9 9 -8 13 0 13 6 0 11 -6 11 -12z m-155 -58 c-3 -5 -12 -10 -18
-10 -7 0 -6 4 3 10 19 12 23 12 15 0z m20 -70 c-3 -5 -12 -10 -18 -10 -7 0 -6
4 3 10 19 12 23 12 15 0z m-85 -44 c0 -3 -4 -8 -10 -11 -5 -3 -10 -1 -10 4 0
6 5 11 10 11 6 0 10 -2 10 -4z m-130 -41 c-7 -8 -17 -15 -23 -15 -6 0 -2 7 9
15 25 19 30 19 14 0z m30 -21 c0 -8 -19 -13 -24 -6 -3 5 1 9 9 9 8 0 15 -2 15
-3z m-223 -79 c0 -8 -4 -12 -9 -9 -5 3 -6 10 -3 15 9 13 12 11 12 -6z m-18
-29 c-3 -3 -11 5 -18 17 -13 21 -12 21 5 5 10 -10 16 -20 13 -22z m82 21 c-6
-8 -7 -18 -3 -22 4 -5 1 -5 -6 -1 -10 6 -10 11 -1 22 6 8 14 14 16 14 3 0 0
-6 -6 -13z m59 3 c0 -5 -2 -10 -4 -10 -3 0 -8 5 -11 10 -3 6 -1 10 4 10 6 0
11 -4 11 -10z m-186 -22 c-5 -8 -1 -9 12 -4 14 5 16 4 7 -5 -13 -13 -37 -3
-28 12 4 5 8 9 11 9 3 0 2 -5 -2 -12z m-14 -28 c0 -5 -5 -10 -11 -10 -5 0 -7
5 -4 10 3 6 8 10 11 10 2 0 4 -4 4 -10z m54 -11 c3 -3 -5 -5 -19 -5 -13 0 -22
3 -19 7 4 8 30 6 38 -2z m-76 -13 c-2 0 -12 -9 -23 -18 -20 -16 -21 -16 -21 0
0 11 9 18 24 19 13 0 22 0 20 -1z m23 -123 c13 -16 12 -17 -3 -4 -17 13 -22
21 -14 21 2 0 10 -8 17 -17z m79 2 c0 -8 -4 -15 -8 -15 -5 0 -9 7 -9 15 0 8 4
15 9 15 4 0 8 -7 8 -15z m980 -321 c0 -8 -19 -13 -24 -6 -3 5 1 9 9 9 8 0 15
-2 15 -3z m-63 -24 c-5 -29 -24 -47 -38 -33 -8 8 -7 13 2 18 8 5 10 4 5 -3 -4
-7 -3 -12 2 -12 17 0 22 13 9 28 -9 13 -9 14 1 8 6 -4 12 -2 12 3 0 6 2 11 5
11 3 0 3 -9 2 -20z m-1937 0 c0 -5 -2 -10 -4 -10 -3 0 -8 5 -11 10 -3 6 -1 10
4 10 6 0 11 -4 11 -10z m1858 -89 c-10 -17 -13 -17 -30 -2 -23 20 -23 24 1 12
25 -14 35 -2 13 16 -15 13 -15 13 5 3 19 -9 21 -14 11 -29z m-67 -4 c-10 -9
-11 -8 -5 6 3 10 9 15 12 12 3 -3 0 -11 -7 -18z m-2131 -67 c0 -5 -5 -10 -11
-10 -5 0 -7 5 -4 10 3 6 8 10 11 10 2 0 4 -4 4 -10z m2080 -20 c0 -5 -4 -10
-10 -10 -5 0 -10 5 -10 10 0 6 5 10 10 10 6 0 10 -4 10 -10z m-30 -19 c0 -4
-10 -7 -22 -8 -13 0 -17 1 -10 4 6 3 10 9 7 14 -4 5 1 6 9 3 9 -3 16 -9 16
-13z m-126 -59 c3 -5 -1 -9 -9 -9 -8 0 -12 4 -9 9 3 4 7 8 9 8 2 0 6 -4 9 -8z
m-2140 -60 c3 -5 -1 -9 -9 -9 -8 0 -12 4 -9 9 3 4 7 8 9 8 2 0 6 -4 9 -8z
m-59 -22 c-3 -5 -12 -10 -18 -10 -7 0 -6 4 3 10 19 12 23 12 15 0z m2080 -20
c-3 -5 -14 -10 -23 -9 -14 0 -13 2 3 9 27 11 27 11 20 0z m-38 -107 c-7 -17
-13 -20 -18 -11 -4 7 -6 15 -3 19 2 4 -2 10 -8 13 -7 3 -2 3 12 0 20 -5 23 -4
13 7 -7 7 -13 17 -13 23 0 5 6 1 14 -9 10 -14 11 -25 3 -42z m28 39 c-3 -3
-11 0 -18 7 -9 10 -8 11 6 5 10 -3 15 -9 12 -12z m-1802 -39 c-4 -11 -8 -13
-11 -5 -2 7 -9 9 -15 5 -7 -4 -6 1 2 10 16 20 33 13 24 -10z m-338 7 c3 -5 1
-10 -4 -10 -6 0 -11 5 -11 10 0 6 2 10 4 10 3 0 8 -4 11 -10z m865 -24 c0 -2
-7 -7 -16 -10 -8 -3 -12 -2 -9 4 6 10 25 14 25 6z m-195 -36 c-3 -5 -12 -10
-18 -10 -7 0 -6 4 3 10 19 12 23 12 15 0z m1399 -5 c3 -8 12 -12 19 -9 8 3 17
-1 20 -9 4 -10 0 -14 -11 -12 -9 2 -23 4 -30 4 -7 1 -10 6 -7 11 3 6 1 10 -4
10 -6 0 -11 5 -11 10 0 15 17 12 24 -5z m-2024 -9 c0 -3 -4 -8 -10 -11 -5 -3
-10 -1 -10 4 0 6 5 11 10 11 6 0 10 -2 10 -4z m1000 -6 c0 -5 -2 -10 -4 -10
-3 0 -8 5 -11 10 -3 6 -1 10 4 10 6 0 11 -4 11 -10z m35 0 c3 -6 -1 -7 -9 -4
-18 7 -21 14 -7 14 6 0 13 -4 16 -10z m400 -20 c4 -6 1 -9 -7 -8 -7 2 -12 -3
-10 -10 1 -8 -2 -11 -8 -7 -8 5 -7 11 1 21 14 17 16 17 24 4z m662 -7 c-4 -3
-2 -12 5 -20 9 -11 7 -18 -8 -31 -10 -9 -13 -10 -6 -2 17 20 15 30 -7 30 -11
0 -23 4 -26 10 -3 5 0 7 8 4 8 -3 18 -1 22 5 3 6 9 11 12 11 4 0 3 -3 0 -7z
m-1477 -13 c0 -5 -2 -10 -4 -10 -3 0 -8 5 -11 10 -3 6 -1 10 4 10 6 0 11 -4
11 -10z m1425 -7 c4 -11 0 -11 -18 -2 -31 16 -32 18 -8 16 11 -1 23 -7 26 -14z
m82 -199 c2 -13 1 -15 -4 -4 -3 8 -11 19 -17 23 -7 6 -6 7 4 4 8 -2 16 -12 17
-23z m-272 -22 c-3 -3 -11 0 -18 7 -9 10 -8 11 6 5 10 -3 15 -9 12 -12z m-95
-26 c0 -2 -7 -9 -15 -16 -13 -11 -14 -10 -9 4 5 14 24 23 24 12z m-50 -41
c-15 -18 -34 -20 -27 -2 2 6 10 11 17 9 8 -2 10 3 6 15 -6 14 -5 15 5 6 10
-10 9 -15 -1 -28z m-45 -85 c3 -6 -1 -7 -9 -4 -18 7 -21 14 -7 14 6 0 13 -4
16 -10z m-66 -53 c-2 -1 -13 -9 -24 -17 -19 -14 -19 -14 -6 3 7 9 18 17 24 17
6 0 8 -1 6 -3z m-54 -167 c-3 -5 -12 -10 -18 -10 -7 0 -6 4 3 10 19 12 23 12
15 0z m1915 -20 c0 -5 -5 -10 -11 -10 -5 0 -7 5 -4 10 3 6 8 10 11 10 2 0 4
-4 4 -10z m126 -2 c4 -7 3 -8 -4 -4 -7 4 -12 2 -12 -5 0 -7 -3 -10 -6 -6 -6 5
3 27 11 27 2 0 7 -5 11 -12z m29 2 c3 -5 1 -10 -4 -10 -6 0 -11 5 -11 10 0 6
2 10 4 10 3 0 8 -4 11 -10z m-764 -77 c13 -16 12 -17 -3 -4 -17 13 -22 21 -14
21 2 0 10 -8 17 -17z m-1306 -43 c3 -6 -1 -7 -9 -4 -18 7 -21 14 -7 14 6 0 13
-4 16 -10z m69 -26 c3 -8 2 -12 -4 -9 -6 3 -10 10 -10 16 0 14 7 11 14 -7z
m-4 -90 c0 -8 -19 -13 -24 -6 -3 5 1 9 9 9 8 0 15 -2 15 -3z m1900 -46 c0 -5
-9 -8 -20 -8 -18 0 -19 3 -8 20 9 14 14 16 20 7 4 -7 8 -15 8 -19z m-1846 -60
c-3 -4 -9 -8 -15 -8 -5 0 -9 4 -9 8 0 5 7 9 15 9 8 0 12 -4 9 -9z m59 6 c-7
-3 -9 -13 -6 -22 4 -14 3 -14 -5 -2 -12 16 -7 30 11 29 9 0 9 -2 0 -5z m1642
-56 c-9 -6 -19 -7 -22 -4 -4 3 -1 6 6 6 7 0 9 4 6 10 -4 6 1 7 11 3 15 -6 15
-7 -1 -15z m-1625 -49 c0 -5 -5 -9 -12 -9 -6 0 -8 3 -5 7 4 3 1 13 -6 22 -11
14 -10 14 6 2 9 -7 17 -17 17 -22z m1530 27 c0 -3 -4 -8 -10 -11 -5 -3 -10 -1
-10 4 0 6 5 11 10 11 6 0 10 -2 10 -4z m-38 -23 c-6 -3 -10 -9 -7 -13 3 -5 -4
-7 -15 -5 -11 2 -23 -3 -28 -11 -4 -7 -23 -16 -42 -18 -31 -3 -32 -2 -16 9 10
8 23 12 30 9 7 -3 20 4 30 15 10 11 22 18 27 16 4 -3 11 0 14 6 4 5 10 7 14 3
3 -4 0 -9 -7 -11z m-1395 -15 c2 -17 0 -19 -7 -8 -5 8 -6 18 -4 22 8 12 10 10
11 -14z m1658 13 c3 -5 2 -12 -3 -15 -5 -3 -9 1 -9 9 0 17 3 19 12 6z m318
-11 c-7 -25 -39 -45 -48 -30 -4 6 -3 10 2 9 21 -4 31 3 36 21 3 11 7 20 10 20
3 0 3 -9 0 -20z m-2018 0 c-3 -5 -12 -10 -18 -10 -7 0 -6 4 3 10 19 12 23 12
15 0z m79 -8 c3 -5 -1 -9 -9 -9 -8 0 -12 4 -9 9 3 4 7 8 9 8 2 0 6 -4 9 -8z
m106 4 c0 -2 -7 -7 -16 -10 -8 -3 -12 -2 -9 4 6 10 25 14 25 6z m-156 -22 c3
-8 2 -12 -4 -9 -6 3 -10 10 -10 16 0 14 7 11 14 -7z m88 -11 c1 -4 7 -13 15
-18 12 -9 11 -11 -6 -11 -11 0 -17 5 -14 10 4 5 -2 7 -13 3 -18 -7 -18 -6 -2
6 10 8 16 17 13 20 -3 4 -2 5 1 3 3 -2 6 -8 6 -13z m88 -11 c0 -5 -7 -9 -15
-9 -8 0 -12 4 -9 9 3 4 9 8 15 8 5 0 9 -4 9 -8z m293 -37 c-3 -9 -8 -14 -10
-11 -3 3 -2 9 2 15 9 16 15 13 8 -4z m-163 1 c0 -2 -8 -10 -17 -17 -16 -13
-17 -12 -4 4 13 16 21 21 21 13z m287 -2 c-3 -3 -12 -6 -20 -8 -8 -1 -23 -8
-33 -16 -18 -14 -18 -14 -2 6 9 11 27 20 39 21 12 1 19 0 16 -3z m613 0 c0 -8
-19 -13 -24 -6 -3 5 1 9 9 9 8 0 15 -2 15 -3z m-694 -19 c-1 -8 -8 -21 -16
-28 -10 -10 -11 -9 -4 3 5 8 9 18 10 23 3 14 4 17 8 17 2 0 3 -7 2 -15z m-379
-10 c0 -8 -4 -12 -9 -9 -5 3 -6 10 -3 15 9 13 12 11 12 -6z m213 9 c0 -8 -19
-13 -24 -6 -3 5 1 9 9 9 8 0 15 -2 15 -3z m226 -28 c0 -14 -3 -23 -7 -20 -6 3
-6 22 0 42 3 10 7 -2 7 -22z m101 -61 c0 -8 -4 -12 -9 -9 -5 3 -6 10 -3 15 9
13 12 11 12 -6z m203 10 c0 -7 -30 -13 -34 -7 -3 4 4 9 15 9 10 1 19 0 19 -2z
m-276 -23 c3 -5 -1 -9 -9 -9 -8 0 -12 4 -9 9 3 4 7 8 9 8 2 0 6 -4 9 -8z
m1341 -22 c-1 -12 -6 -25 -11 -28 -5 -4 -10 -15 -12 -26 -2 -13 1 -16 10 -10
10 6 10 4 -1 -9 -7 -9 -11 -23 -8 -31 6 -15 -9 -16 -31 -2 -11 6 -10 11 2 25
9 9 14 27 11 39 -2 13 0 20 4 17 8 -5 25 31 22 48 -1 5 2 6 7 3 5 -3 8 -15 7
-26z m-11 -139 c-8 -9 -44 -11 -44 -3 0 4 11 8 25 8 13 0 22 -2 19 -5z m-7
-50 c-1 -15 -4 -17 -19 -7 -10 6 -18 15 -18 20 0 4 8 2 17 -5 15 -12 16 -12
10 4 -4 10 -3 16 2 12 6 -3 9 -14 8 -24z m-116 -158 c13 -16 12 -17 -3 -4 -10
7 -18 15 -18 17 0 8 8 3 21 -13z m-111 -13 c0 -5 -2 -10 -4 -10 -3 0 -8 5 -11
10 -3 6 -1 10 4 10 6 0 11 -4 11 -10z m80 0 c0 -5 -2 -10 -4 -10 -3 0 -8 5
-11 10 -3 6 -1 10 4 10 6 0 11 -4 11 -10z m-120 -10 c0 -5 -2 -10 -4 -10 -3 0
-8 5 -11 10 -3 6 -1 10 4 10 6 0 11 -4 11 -10z m31 -14 c5 3 9 -2 9 -12 0 -13
-3 -14 -15 -4 -8 7 -15 18 -14 24 0 7 2 6 6 -2 2 -6 9 -10 14 -6z m152 -19
c-7 -11 -23 2 -23 19 0 12 2 12 14 2 8 -7 12 -16 9 -21z"/>
<path d="M4431 856 c-7 -8 -8 -17 -3 -20 6 -3 12 3 15 14 6 24 4 25 -12 6z"/>
<path d="M2450 4159 c0 -5 4 -8 9 -5 4 3 16 -3 26 -14 12 -13 23 -17 34 -11 9
4 37 7 63 6 26 -1 49 3 51 9 3 7 -15 11 -49 11 -30 0 -54 -4 -54 -8 0 -4 -10
-2 -22 5 -31 17 -58 20 -58 7z m51 -16 c13 -16 12 -17 -3 -4 -10 7 -18 15 -18
17 0 8 8 3 21 -13z"/>
<path d="M1166 4141 c-4 -5 1 -8 9 -7 21 3 31 16 12 16 -9 0 -18 -4 -21 -9z"/>
<path d="M2605 3429 c-9 -14 -2 -20 14 -10 8 6 9 11 3 15 -6 3 -14 1 -17 -5z"/>
<path d="M1175 3200 c3 -5 8 -10 11 -10 2 0 4 5 4 10 0 6 -5 10 -11 10 -5 0
-7 -4 -4 -10z"/>
<path d="M2359 3121 c11 -7 11 -9 0 -14 -11 -4 -11 -6 -1 -6 7 -1 10 -6 6 -13
-4 -7 -3 -8 4 -4 7 4 12 2 12 -3 0 -6 11 -10 24 -9 14 1 22 6 20 10 -3 4 -11
5 -18 2 -8 -3 -17 -1 -21 5 -3 6 2 11 12 11 13 0 10 4 -11 15 -30 16 -50 20
-27 6z"/>
<path d="M2363 3023 c-7 -2 -13 -12 -13 -21 0 -13 3 -12 15 4 15 19 15 19 9
-1 -5 -16 -4 -17 5 -5 19 27 13 35 -16 23z"/>
<path d="M2400 3009 c-7 -11 -9 -23 -7 -26 3 -2 8 5 12 16 3 12 11 18 17 15 7
-4 8 -2 4 4 -10 16 -14 15 -26 -9z"/>
<path d="M1201 2671 c-10 -6 -9 -10 3 -14 8 -3 18 -2 21 3 8 13 -9 20 -24 11z"/>
<path d="M3030 2575 c-11 -13 -10 -14 4 -9 9 3 16 10 16 15 0 13 -6 11 -20 -6z"/>
<path d="M2830 2399 c0 -5 5 -7 10 -4 6 3 10 8 10 11 0 2 -4 4 -10 4 -5 0 -10
-5 -10 -11z"/>
<path d="M1131 2373 c-1 -7 -1 -16 -1 -20 0 -5 17 -8 38 -8 20 0 42 -3 48 -7
6 -4 19 -2 29 6 15 11 16 13 1 13 -9 0 -16 -5 -16 -11 0 -6 -7 -2 -15 8 -11
14 -15 16 -15 5 0 -12 -2 -12 -10 1 -9 13 -10 13 -10 0 0 -12 -2 -13 -9 -1 -5
7 -13 11 -19 7 -6 -3 -13 0 -15 6 -4 10 -6 10 -6 1z"/>
<path d="M1265 2340 c-10 -16 17 -23 31 -8 12 12 11 14 -6 15 -11 1 -22 -2
-25 -7z"/>
<path d="M1416 2335 c-3 -9 -6 -18 -6 -20 0 -1 16 -2 35 -2 26 1 34 5 30 15
-3 7 -5 16 -5 19 0 3 -7 0 -16 -8 -12 -10 -17 -10 -23 0 -6 10 -10 9 -15 -4z"/>
<path d="M2229 2322 c6 -11 8 -22 5 -24 -2 -3 3 -11 11 -18 19 -16 37 -2 41
32 2 13 0 17 -2 11 -3 -7 -10 -13 -15 -13 -6 0 -7 6 -3 13 4 6 4 9 -1 5 -4 -4
-16 -3 -27 3 -17 9 -18 8 -9 -9z m50 -29 c2 -2 -5 -3 -16 -3 -11 0 -20 7 -20
15 0 12 3 12 16 3 9 -7 18 -14 20 -15z"/>
<path d="M1810 2321 c0 -13 29 -35 37 -28 3 4 13 1 21 -6 10 -8 13 -8 9 -1 -4
7 0 14 8 18 8 3 17 1 21 -5 3 -6 10 -6 17 -1 7 5 22 8 34 7 12 -1 19 3 17 10
-6 14 -44 17 -44 4 0 -6 -6 -7 -12 -2 -19 11 -39 13 -32 2 3 -5 0 -9 -5 -9 -6
0 -11 6 -11 13 0 9 -2 9 -8 0 -5 -8 -13 -9 -22 -3 -19 12 -30 12 -30 1z m35
-19 c-3 -3 -11 0 -18 7 -9 10 -8 11 6 5 10 -3 15 -9 12 -12z"/>
<path d="M2097 2316 c-7 -18 18 -42 28 -26 5 8 11 7 21 -1 12 -10 15 -10 12 1
-2 8 5 16 16 18 10 2 16 0 12 -6 -3 -6 0 -9 6 -8 14 2 18 9 18 29 0 8 -4 7
-10 -3 -5 -8 -10 -10 -10 -5 0 6 -16 11 -36 12 -28 0 -34 -2 -30 -16 5 -13 4
-13 -8 2 -11 15 -15 15 -19 3z m63 -2 c0 -8 -19 -13 -24 -6 -3 5 1 9 9 9 8 0
15 -2 15 -3z"/>
<path d="M2856 2282 c-2 -4 -1 -14 4 -22 7 -11 9 -9 7 8 -1 24 -3 26 -11 14z"/>
<path d="M2876 2223 c-6 -14 -5 -15 5 -6 7 7 10 15 7 18 -3 3 -9 -2 -12 -12z"/>
<path d="M2895 2200 c-3 -5 -1 -10 4 -10 6 0 11 5 11 10 0 6 -2 10 -4 10 -3 0
-8 -4 -11 -10z"/>
<path d="M2848 2147 c11 -13 10 -17 -5 -26 -12 -7 -13 -10 -4 -11 10 0 11 -3
2 -14 -7 -8 -8 -17 -3 -20 6 -3 12 4 15 15 4 14 10 18 19 13 19 -12 37 -14 43
-4 3 5 -3 7 -14 5 -11 -2 -25 3 -32 11 -9 11 -8 14 4 14 9 0 19 5 23 12 4 7 3
8 -4 4 -6 -4 -22 -1 -34 5 -21 11 -22 11 -10 -4z"/>
<path d="M2303 1693 c1 -26 12 -30 21 -7 3 8 2 13 -3 9 -5 -3 -11 1 -14 7 -3
7 -4 3 -4 -9z"/>
<path d="M4150 1299 c-7 -11 -9 -23 -6 -27 3 -3 6 1 6 9 0 11 2 12 9 1 7 -11
9 -10 14 3 5 11 3 14 -5 9 -8 -5 -9 -2 -5 9 9 24 0 21 -13 -4z"/>
<path d="M4001 1226 c-10 -12 -9 -14 5 -12 10 2 20 8 22 14 5 17 -13 15 -27
-2z"/>
<path d="M4425 681 c-3 -5 -1 -12 4 -15 10 -6 9 -31 -1 -42 -4 -3 -2 -17 4
-30 8 -18 14 -21 20 -12 4 7 8 18 8 23 0 6 -4 4 -9 -3 -7 -11 -9 -11 -14 2 -4
10 -1 16 8 16 13 0 14 28 1 49 -4 5 0 12 6 14 8 4 7 6 -4 6 -9 1 -19 -3 -23
-8z"/>
<path d="M4415 570 c3 -5 8 -10 11 -10 2 0 4 5 4 10 0 6 -5 10 -11 10 -5 0 -7
-4 -4 -10z"/>
<path d="M4415 511 c-3 -5 -2 -12 3 -15 5 -3 9 1 9 9 0 17 -3 19 -12 6z"/>
</g>
</svg>
